<svg width="38" height="38" viewBox="0 0 38 38" fill="none" xmlns="http://www.w3.org/2000/svg">
<g filter="url(#filter0_d_1583_815)">
<g clip-path="url(#clip0_1583_815)">
<path fill-rule="evenodd" clip-rule="evenodd" d="M16.3841 8.69189C17.0608 8.66073 17.2766 8.65381 19.0005 8.65381C20.7243 8.65381 20.9401 8.66131 21.6162 8.69189C22.2924 8.72246 22.7539 8.83035 23.1578 8.98669C23.5806 9.1465 23.9643 9.39631 24.2816 9.71939C24.6047 10.0361 24.8539 10.4192 25.0131 10.8427C25.1701 11.2465 25.2774 11.708 25.3085 12.383C25.3397 13.0609 25.3466 13.2767 25.3466 15C25.3466 16.7238 25.3391 16.9396 25.3085 17.6163C25.278 18.2913 25.1701 18.7528 25.0131 19.1567C24.8539 19.5802 24.6043 19.9639 24.2816 20.2811C23.9643 20.6042 23.5806 20.8534 23.1578 21.0127C22.7539 21.1696 22.2924 21.2769 21.6174 21.308C20.9401 21.3392 20.7243 21.3461 19.0005 21.3461C17.2766 21.3461 17.0608 21.3386 16.3841 21.308C15.7091 21.2775 15.2476 21.1696 14.8437 21.0127C14.4202 20.8534 14.0365 20.6038 13.7193 20.2811C13.3964 19.9642 13.1466 19.5807 12.9872 19.1573C12.8308 18.7534 12.7235 18.2919 12.6924 17.6169C12.6612 16.939 12.6543 16.7232 12.6543 15C12.6543 13.2761 12.6618 13.0603 12.6924 12.3842C12.723 11.708 12.8308 11.2465 12.9872 10.8427C13.1468 10.4192 13.3969 10.0357 13.7199 9.71881C14.0366 9.39602 14.42 9.14618 14.8431 8.98669C15.247 8.83035 15.7085 8.72304 16.3835 8.69189H16.3841ZM21.5649 9.83419C20.8956 9.80362 20.6949 9.79727 19.0005 9.79727C17.306 9.79727 17.1053 9.80362 16.436 9.83419C15.817 9.86246 15.4812 9.96573 15.2574 10.0528C14.9614 10.1682 14.7497 10.305 14.5276 10.5271C14.317 10.7319 14.155 10.9813 14.0533 11.2569C13.9662 11.4807 13.863 11.8165 13.8347 12.4355C13.8041 13.1048 13.7978 13.3055 13.7978 15C13.7978 16.6944 13.8041 16.8952 13.8347 17.5644C13.863 18.1834 13.9662 18.5192 14.0533 18.743C14.1549 19.0182 14.317 19.268 14.5276 19.4728C14.7324 19.6834 14.9822 19.8455 15.2574 19.9471C15.4812 20.0342 15.817 20.1375 16.436 20.1657C17.1053 20.1963 17.3055 20.2027 19.0005 20.2027C20.6955 20.2027 20.8956 20.1963 21.5649 20.1657C22.1839 20.1375 22.5197 20.0342 22.7435 19.9471C23.0395 19.8317 23.2512 19.695 23.4733 19.4728C23.6839 19.268 23.846 19.0182 23.9476 18.743C24.0347 18.5192 24.138 18.1834 24.1662 17.5644C24.1968 16.8952 24.2031 16.6944 24.2031 15C24.2031 13.3055 24.1968 13.1048 24.1662 12.4355C24.138 11.8165 24.0347 11.4807 23.9476 11.2569C23.8322 10.9609 23.6955 10.7492 23.4733 10.5271C23.2685 10.3165 23.0191 10.1545 22.7435 10.0528C22.5197 9.96573 22.1839 9.86246 21.5649 9.83419ZM18.1899 16.9563C18.6426 17.1447 19.1466 17.1702 19.616 17.0283C20.0853 16.8863 20.4909 16.5859 20.7633 16.1782C21.0357 15.7705 21.1582 15.2808 21.1097 14.7929C21.0612 14.305 20.8449 13.849 20.4976 13.5028C20.2762 13.2816 20.0085 13.1122 19.7137 13.0068C19.419 12.9014 19.1045 12.8627 18.793 12.8934C18.4815 12.9241 18.1807 13.0235 17.9123 13.1845C17.6438 13.3454 17.4143 13.5639 17.2404 13.8241C17.0665 14.0844 16.9525 14.3799 16.9065 14.6896C16.8606 14.9992 16.8838 15.3151 16.9746 15.6147C17.0654 15.9142 17.2215 16.1899 17.4316 16.4219C17.6418 16.6539 17.9007 16.8364 18.1899 16.9563ZM16.6939 12.6934C16.9968 12.3905 17.3564 12.1503 17.7522 11.9863C18.1479 11.8224 18.5721 11.738 19.0005 11.738C19.4288 11.738 19.853 11.8224 20.2487 11.9863C20.6445 12.1503 21.0041 12.3905 21.307 12.6934C21.6099 12.9963 21.8502 13.3559 22.0141 13.7517C22.178 14.1474 22.2624 14.5716 22.2624 15C22.2624 15.4283 22.178 15.8525 22.0141 16.2483C21.8502 16.644 21.6099 17.0036 21.307 17.3065C20.6953 17.9182 19.8656 18.2619 19.0005 18.2619C18.1353 18.2619 17.3056 17.9182 16.6939 17.3065C16.0822 16.6948 15.7385 15.8651 15.7385 15C15.7385 14.1348 16.0822 13.3052 16.6939 12.6934ZM22.9858 12.2238C23.0609 12.153 23.121 12.0679 23.1625 11.9734C23.2041 11.879 23.2263 11.7771 23.2278 11.674C23.2293 11.5708 23.2101 11.4684 23.1713 11.3727C23.1325 11.2771 23.0749 11.1903 23.002 11.1173C22.929 11.0443 22.8421 10.9867 22.7465 10.948C22.6509 10.9092 22.5485 10.8899 22.4453 10.8915C22.3421 10.893 22.2403 10.9151 22.1459 10.9567C22.0514 10.9983 21.9663 11.0584 21.8955 11.1334C21.7577 11.2794 21.6824 11.4733 21.6853 11.674C21.6882 11.8746 21.7692 12.0662 21.9111 12.2081C22.053 12.35 22.2446 12.4311 22.4453 12.434C22.646 12.4369 22.8399 12.3615 22.9858 12.2238Z" fill="#715B4B"/>
</g>
<circle cx="19" cy="15" r="14.5" stroke="#715B4B"/>
</g>
<defs>
<filter id="filter0_d_1583_815" x="0" y="0" width="38" height="38" filterUnits="userSpaceOnUse" color-interpolation-filters="sRGB">
<feFlood flood-opacity="0" result="BackgroundImageFix"/>
<feColorMatrix in="SourceAlpha" type="matrix" values="0 0 0 0 0 0 0 0 0 0 0 0 0 0 0 0 0 0 127 0" result="hardAlpha"/>
<feOffset dy="4"/>
<feGaussianBlur stdDeviation="2"/>
<feComposite in2="hardAlpha" operator="out"/>
<feColorMatrix type="matrix" values="0 0 0 0 0 0 0 0 0 0 0 0 0 0 0 0 0 0 0.25 0"/>
<feBlend mode="normal" in2="BackgroundImageFix" result="effect1_dropShadow_1583_815"/>
<feBlend mode="normal" in="SourceGraphic" in2="effect1_dropShadow_1583_815" result="shape"/>
</filter>
<clipPath id="clip0_1583_815">
<rect width="13.8462" height="13.8462" fill="white" transform="translate(12.0771 8.0769)"/>
</clipPath>
</defs>
</svg>
