<svg width="30" height="30" viewBox="0 0 30 30" fill="none" xmlns="http://www.w3.org/2000/svg">
<path d="M20.3113 9.18005C20.7388 9.18005 21.0613 9.55505 20.8888 10.2526L18.7963 20.1151C18.6501 20.8163 18.2263 20.9851 17.6413 20.6588L12.6501 16.9726C12.6307 16.9587 12.615 16.9404 12.6041 16.9192C12.5932 16.898 12.5875 16.8745 12.5875 16.8507C12.5875 16.8269 12.5932 16.8034 12.6041 16.7822C12.615 16.761 12.6307 16.7427 12.6501 16.7288L18.4138 11.5238C18.6763 11.2913 18.3576 11.1788 18.0126 11.3888L10.7788 15.9526C10.7569 15.9669 10.732 15.976 10.706 15.9792C10.68 15.9825 10.6536 15.9798 10.6288 15.9713L7.55759 15.0001C6.87509 14.8013 6.87509 14.3326 7.71134 13.9988L20.0001 9.2588C20.0975 9.21205 20.2034 9.18527 20.3113 9.18005V9.18005Z" stroke="#715B4B" stroke-linecap="round" stroke-linejoin="round"/>
<circle cx="15" cy="15" r="14.5" stroke="#715B4B"/>
</svg>
