<svg width="30" height="30" viewBox="0 0 30 30" fill="none" xmlns="http://www.w3.org/2000/svg">
<g clip-path="url(#clip0_1583_824)">
<path fill-rule="evenodd" clip-rule="evenodd" d="M18.1243 16.3742C17.9523 16.2883 17.1095 15.874 16.9525 15.8164C16.7956 15.7592 16.6814 15.731 16.5666 15.9029C16.4523 16.0737 16.1241 16.4602 16.0243 16.5744C15.9239 16.6892 15.8241 16.7031 15.6527 16.6177C15.4814 16.5312 14.9287 16.3506 14.2739 15.7667C13.7645 15.3121 13.42 14.7508 13.3202 14.5789C13.2204 14.4075 13.3093 14.3146 13.3952 14.2292C13.4725 14.1525 13.5666 14.029 13.6525 13.9292C13.7385 13.8289 13.7668 13.7573 13.8239 13.6425C13.8816 13.5283 13.8527 13.4285 13.8095 13.3425C13.7668 13.2565 13.4241 12.4125 13.281 12.0692C13.142 11.7352 13.0006 11.7808 12.8956 11.775C12.7952 11.7704 12.681 11.7692 12.5668 11.7692C12.4525 11.7692 12.2668 11.8119 12.1098 11.9839C11.9523 12.1552 11.5098 12.57 11.5098 13.414C11.5098 14.2575 12.1237 15.0727 12.2096 15.1875C12.2956 15.3017 13.4183 17.0337 15.1381 17.7762C15.5477 17.9527 15.8668 18.0583 16.1154 18.1367C16.5262 18.2677 16.9 18.2492 17.1954 18.2048C17.5243 18.1558 18.2096 17.79 18.3527 17.3896C18.4952 16.9892 18.4952 16.646 18.4525 16.5744C18.4098 16.5029 18.2956 16.4602 18.1237 16.3742H18.1243ZM14.9962 20.6452H14.9939C13.9724 20.6454 12.9697 20.3708 12.0908 19.8502L11.8831 19.7267L9.72426 20.2933L10.3006 18.1887L10.165 17.9729C9.59396 17.0639 9.29174 16.0118 9.2933 14.9383C9.29446 11.794 11.8525 9.23597 14.9985 9.23597C16.5216 9.23597 17.9535 9.8302 19.03 10.9079C19.561 11.4367 19.9819 12.0655 20.2683 12.758C20.5547 13.4505 20.7009 14.1929 20.6985 14.9423C20.6973 18.0865 18.1393 20.6452 14.9962 20.6452ZM19.8493 10.0892C19.2136 9.44938 18.4573 8.94205 17.6241 8.59662C16.791 8.2512 15.8975 8.07455 14.9956 8.07693C11.2145 8.07693 8.13599 11.1548 8.13484 14.9377C8.13426 16.1469 8.44984 17.3273 9.05042 18.3675L8.07715 21.9231L11.7141 20.9689C12.7202 21.517 13.8476 21.8042 14.9933 21.8042H14.9962C18.7773 21.8042 21.8558 18.7264 21.857 14.9429C21.8597 14.0413 21.6837 13.1481 21.3391 12.315C20.9945 11.4819 20.4881 10.7254 19.8493 10.0892Z" fill="#715B4B"/>
</g>
<circle cx="15" cy="15" r="14.5" stroke="#715B4B"/>
<defs>
<clipPath id="clip0_1583_824">
<rect width="13.8462" height="13.8462" fill="white" transform="translate(8.07715 8.0769)"/>
</clipPath>
</defs>
</svg>
